**ABCDEFGHIJKLMNOPQRSTUVWXYZabcdefghijklmnopqrstuvwxyz**************************
**PARASOLID !"#$%&'()*+,-./:;<=>?@[\]^_`{|}~0123456789**************************
**PART1;
MC=unknown;
MC_MODEL=unknown;
MC_ID=unknown;
OS=unknown;
OS_RELEASE=unknown;
FRU=sdl_parasolid_customer_support;
APPL=parasolid_acceptance_tests;
SITE=unknown;
USER=unknown;
FORMAT=text;
GUISE=transmit;
KEY=a_part;
FILE=a_part.xmt_txt;
DATE=unknown;
**PART2;
SCH=SCH_1300151_13006;
USFLD_SIZE=0;
**PART3;
**END_OF_HEADER*****************************************************************
T51 : TRANSMIT FILE created by modeller version 130015117 SCH_1300151_130060 12
 1 84 0 0 0 0 0 0 1e3 1e-8 0 2 3 1 0 1 1 4 5 6 7 8 9 10 13 4 3 0 1 0 11 0 0 12 0
 50 5 54 0 11 13 0 0 +50 50 50 0 0 1 1 0 0 30 6 62 0 9 14 0 0 +50 0 50 -1 0 0 29
 7 58 0 10 15 0 0 0 50 19 8 1 0 1 12 0 16 V16 9 34 0 ?17 0 18 6 0 0 1 18 10 23 0
 17 0 19 7 ?1 17 17 0 20 21 22 10 23 9 0 24 +18 19 21 0 25 10 26 15 ?1 17 25 0 2
7 28 29 19 24 18 0 30 +18 26 19 0 31 19 32 33 ?1 29 15 57 0 19 33 7 0 1e2 50 29
 33 56 0 26 34 15 1e2 1e2 50 29 34 55 0 32 35 33 1e2 0 50 18 32 17 0 23 26 36 34
 ?1 29 35 41 0 37 38 34 0 0 0 18 37 11 0 21 39 40 35 ?1 29 38 40 0 39 41 35 0 1e
2 0 18 39 13 0 28 36 37 38 ?1 29 41 39 0 36 42 38 1e2 1e2 0 18 36 15 0 43 32 39
 41 ?1 29 42 38 0 40 0 41 1e2 0 0 18 40 10 0 44 37 0 42 ?1 17 44 0 45 46 47 40 2
2 48 0 49 -15 45 7 0 46 50 0 17 46 0 45 51 44 36 52 53 0 0 +17 47 0 45 44 51 32
 54 55 0 22 +17 22 0 20 17 49 32 44 48 0 0 +16 48 18 0 ?22 56 53 57 0 0 1 17 49
 0 20 22 21 40 58 59 0 52 +15 20 32 0 22 60 0 17 21 0 20 49 17 37 29 61 0 62 -17
 58 0 63 64 52 37 49 59 0 0 -16 59 12 0 ?49 65 66 67 0 0 1 17 52 0 63 58 68 40 4
6 53 0 0 -15 63 8 0 52 69 0 17 68 0 63 52 64 36 70 71 0 46 -16 53 6 0 ?46 48 71
 72 0 0 1 16 71 16 0 ?70 53 65 73 0 0 1 30 72 43 0 53 67 73 0 +1e2 50 0 0 1 0 30
 67 42 0 59 74 72 0 +50 0 0 1 0 0 30 73 44 0 71 72 75 0 +50 1e2 0 -1 0 0 30 75 4
5 0 65 73 57 0 +0 50 0 0 -1 0 16 65 14 0 ?62 71 59 75 0 0 1 30 57 50 0 48 75 76
 0 +1e2 0 0 0 0 1 30 76 51 0 56 57 77 0 +1e2 1e2 0 0 0 1 16 56 20 0 ?51 78 48 76
 0 0 1 30 77 52 0 78 76 79 0 +0 1e2 0 0 0 1 16 78 22 0 ?80 61 56 77 0 0 1 30 79
 53 0 61 77 81 0 +0 0 0 0 0 1 16 61 24 0 ?29 55 78 79 0 0 1 30 81 59 0 55 79 82
 0 +1e2 50 50 0 -1 0 16 55 25 0 ?47 83 61 81 0 0 1 30 82 60 0 83 81 14 0 +50 1e2
 50 1 0 0 16 83 28 0 ?31 18 55 82 0 0 1 30 14 61 0 18 82 6 0 +0 50 50 0 1 0 16 1
8 31 0 ?25 9 83 14 0 0 1 17 31 0 84 43 80 26 30 83 0 54 +15 84 26 0 80 85 0 17 4
3 0 84 70 31 36 51 56 0 68 -17 80 0 84 31 70 19 28 78 0 0 +17 30 0 86 24 54 19 3
1 83 0 80 -17 54 0 86 30 23 26 47 55 0 51 -15 86 35 0 23 11 0 17 23 0 86 54 24 3
2 17 9 0 47 -17 51 0 45 47 46 26 43 56 0 0 +17 24 0 86 23 30 10 25 18 0 29 -17 2
9 0 27 25 62 10 21 61 0 0 +15 27 29 0 29 87 0 17 62 0 27 29 28 37 64 65 0 58 +17
 28 0 27 62 25 39 80 78 0 70 -17 64 0 63 68 58 39 62 65 0 0 -17 70 0 84 80 43 39
 68 71 0 64 +14 87 30 0 ?85 60 27 4 88 +0 0 85 60 16 14 85 27 0 ?69 87 84 4 89 +
0 0 69 87 16 14 60 33 0 ?87 11 20 4 13 +0 0 87 11 16 50 88 48 0 87 89 13 0 +0 50
 0 -1 0 0 0 0 1 13 16 4 0 0 0 0 0 0 8 11 14 11 36 0 ?60 0 90 4 5 +0 0 60 0 16 15
 90 65 0 91 11 86 17 91 0 90 91 91 0 92 66 0 0 +17 92 0 93 92 92 0 91 66 0 0 -16
 66 69 0 ?91 59 94 74 0 0 1 16 94 70 0 ?95 66 0 96 0 0 1 31 74 83 0 66 96 67 0 +
50 50 50 0 0 -1 1 0 0 25 31 96 84 0 94 0 74 0 +50 50 25 0 0 1 1 0 0 25 17 95 0 9
7 95 95 0 98 94 0 0 +15 97 74 0 95 99 0 17 98 0 100 98 98 0 95 94 0 0 -15 100 77
 0 98 101 0 14 101 75 0 ?0 99 93 4 102 -0 0 0 99 16 14 99 73 0 ?101 50 97 4 103
 -0 0 101 50 16 15 93 76 0 92 101 100 51 102 80 0 101 103 104 0 +50 50 25 0 0 1
 25 1 0 0 50 103 82 0 99 0 102 0 +50 50 25 0 0 -1 -1 0 0 50 104 37 0 69 102 105
 0 +50 50 0 0 0 -1 -1 0 0 14 69 9 0 ?50 85 63 4 104 +0 0 50 85 16 50 105 46 0 50
 104 89 0 +1e2 50 0 1 0 0 0 0 -1 14 50 2 0 ?99 69 45 4 105 +0 0 99 69 16 50 89 4
7 0 85 105 88 0 +50 1e2 0 0 1 0 0 0 1 50 13 49 0 60 88 5 0 +50 0 0 0 -1 0 0 0 -1
 19 12 5 0 1 0 8 4 S1 0 
